<svg width="540" height="860" xmlns="http://www.w3.org/2000/svg"><rect rx="50" height="860" width="540" fill="#fff"/><path stroke="null" d="M428.248 470.323c0 48.844-42.113 71.219-71.233 71.234-32.474 0-57.01-14.708-71.616-26.718 1.926 39.734 11.331 68.122 53.538 90.465H201.063c42.207-22.343 51.612-50.73 53.538-90.465-14.607 12.002-39.15 26.734-71.616 26.718-29.081 0-71.233-22.39-71.233-71.234 0-89.272 62.889-64.979 158.244-215.627 95.363 150.648 158.252 126.363 158.252 215.627z"/><text stroke="#000" stroke-width="0" x="80" y="150" font-size="150" font-family="'Rubik'" text-anchor="middle" xml:space="preserve" font-weight="bold">0</text><text stroke="#000" stroke-width="0" x="460" y="810" font-size="150" font-family="'Rubik'" text-anchor="middle" xml:space="preserve" font-weight="bold">0</text></svg>